# xmcd CD database file
#
# Track frame offsets:
#	150
#	15282
#	27482
#	49197
#
# Disc length: 877 seconds
#
# Revision: 0
# Processed by: cddbd v1.5.1PL0 Copyright (c) Steve Scherf et al.
# Submitted via: CDex 1.51
#
DISCID=26036b04
DTITLE=ボンバーヘッド - デモCDver.2
DYEAR=2004
DGENRE=Pop
TTITLE0=億万長者
TTITLE1=CONCEIT
TTITLE2=New
TTITLE3=永遠
EXTD=YEAR: 2004
EXTT0=
EXTT1=
EXTT2=
EXTT3=
PLAYORDER=
